<svg xmlns="http://www.w3.org/2000/svg" viewBox="0 0 800 200"><path d="M0 0h800v200H0z" fill="#a00"/><path d="M335.461 74.757c-.65 0-1.183.532-1.183 1.183v2.367c0 .651.532 1.184 1.183 1.184s1.184-.533 1.184-1.184V75.94c0-.65-.533-1.183-1.184-1.183zm-4.182 1.723a1.184 1.184 0 00-.838 2.024l1.677 1.677a1.185 1.185 0 101.677-1.676l-1.677-1.677a1.182 1.182 0 00-.839-.348zm8.364 0c-.303 0-.606.116-.838.348l-1.677 1.677a1.184 1.184 0 101.677 1.677l1.676-1.677a1.185 1.185 0 000-1.677 1.182 1.182 0 00-.838-.348zm-.631 4.194c-.651 0-1.183.533-1.183 1.184 0 .65.532 1.183 1.183 1.183h2.367c.65 0 1.183-.532 1.183-1.183s-.532-1.184-1.183-1.184zm-5.188 1.134l-5.128 5.129-2.614-2.614a2.357 2.357 0 00-3.344 0l-1.716 1.717a20.45 20.45 0 00-8.442-1.815c-11.332 0-20.514 9.182-20.514 20.514 0 11.332 9.182 20.504 20.514 20.504 11.332 0 20.514-9.182 20.514-20.514a20.45 20.45 0 00-1.815-8.442l1.717-1.716a2.357 2.357 0 000-3.344l-2.614-2.613 5.129-5.129zm4.142 1.379a1.185 1.185 0 00-.838 2.024l1.677 1.677a1.185 1.185 0 101.677-1.677l-1.677-1.676a1.182 1.182 0 00-.839-.348zm-29.126 5.432c.774-.002 1.396.507 1.396 1.364 0 1.054-1.013 1.272-1.983 1.684-4.674 1.983-7.018 4.437-8.397 8.536-.336.999-.75 2.05-1.804 2.05s-1.576-1.044-1.263-2.05c1.758-5.646 5.323-9.613 11.497-11.497a1.97 1.97 0 01.554-.086z" fill="#fff"/><g aria-label="KABOOM" style="line-height:25px" font-weight="700" font-size="40" font-family="Glacial Indifference" letter-spacing="-.5" word-spacing="0" fill="#fff"><path d="M358.024 92.129l7.968 11.267h7.487l-10.044-12.601 9.674-12.602h-7.117l-7.968 11.267V78.193h-5.56v25.203h5.56z" style="-inkscape-font-specification:'Glacial Indifference Bold'"/><path d="M388.59 93.76h-6.375l3.188-8.97zm9.414 9.636l-10.23-25.203h-4.707l-10.23 25.203h5.968l1.816-5.077h9.6l1.816 5.077zM412.124 96.02c0 1.669-1.408 3.04-3.076 3.04h-3.521v-6.079h3.52c1.669 0 3.077 1.409 3.077 3.04zm-1.742-10.526c0 1.594-1.334 2.929-2.928 2.929h-1.927v-5.857h1.927a2.934 2.934 0 012.928 2.928zm7.413 10.675c0-3.41-2.298-5.67-5.115-6.338 1.89-.853 3.002-2.78 3.002-5.337 0-3.447-2.743-6.301-7.042-6.301h-8.673v25.203h10.193c4.818 0 7.635-2.89 7.635-7.227zM439.377 90.758c0 3.891-3.521 7.45-7.413 7.45-3.892 0-7.413-3.559-7.413-7.45 0-3.892 3.521-7.413 7.413-7.413 3.892 0 7.413 3.52 7.413 7.413zm5.56.037c0-6.968-6.005-12.973-12.973-12.973-6.968 0-12.973 6.005-12.973 12.973 0 6.968 6.005 12.972 12.973 12.972 6.968 0 12.972-6.004 12.972-12.972zM467.435 90.758c0 3.891-3.52 7.45-7.412 7.45s-7.413-3.559-7.413-7.45c0-3.892 3.52-7.413 7.413-7.413 3.891 0 7.412 3.52 7.412 7.413zm5.56.037c0-6.968-6.004-12.973-12.972-12.973s-12.973 6.005-12.973 12.973c0 6.968 6.005 12.972 12.973 12.972 6.968 0 12.972-6.004 12.972-12.972zM507.466 103.396l-4.893-25.203h-6.597l-5.226 17.68-5.263-17.68h-6.598l-4.892 25.203h6.116l2.965-17.383 4.93 17.383h5.448l4.93-17.383 2.964 17.383z" style="-inkscape-font-specification:'Glacial Indifference Bold'"/></g><g aria-label="FREE OP • ANARCHY" style="line-height:25px" font-weight="700" font-size="21.333" font-family="Glacial Indifference" letter-spacing="0" word-spacing="0" fill="#fff"><path d="M358.759 117.272v-2.358h-4.057v-2.34h4.23v-2.358h-6.83v11.788h2.6v-4.732zM363.438 117.792h.017l2.809 4.212h3.294l-3.38-4.334c1.49-.364 2.686-1.681 2.686-3.675 0-2.236-1.699-3.78-3.606-3.78h-4.421v11.79h2.6zm1.387-5.53c.763 0 1.56.658 1.56 1.733 0 1.127-.797 1.75-1.56 1.75h-1.387v-3.484zM377.217 119.647h-4.23v-2.375h4.056v-2.358h-4.056v-2.34h4.23v-2.358h-6.83v11.788h6.83zM386.122 119.647h-4.23v-2.375h4.057v-2.358h-4.057v-2.34h4.23v-2.358h-6.83v11.788h6.83zM401.633 116.093c0 1.82-1.647 3.484-3.468 3.484-1.82 0-3.467-1.664-3.467-3.484s1.647-3.468 3.467-3.468 3.468 1.647 3.468 3.468zm2.6.017c0-3.26-2.808-6.068-6.068-6.068-3.259 0-6.068 2.809-6.068 6.068 0 3.26 2.809 6.068 6.068 6.068 3.26 0 6.068-2.809 6.068-6.068zM408.472 117.792h1.82c1.908 0 3.607-1.405 3.607-3.797 0-2.236-1.7-3.78-3.606-3.78H405.87v11.79h2.601zm1.387-5.53c.763 0 1.56.658 1.56 1.733 0 1.127-.797 1.75-1.56 1.75h-1.387v-3.484zM418.772 115.954a2.19 2.19 0 002.202 2.184c1.214 0 2.184-.97 2.184-2.184 0-1.214-.97-2.184-2.184-2.184a2.19 2.19 0 00-2.202 2.184zM434.94 117.497h-2.983l1.491-4.196zm4.403 4.507l-4.785-11.788h-2.202l-4.785 11.788h2.791l.85-2.375h4.49l.85 2.375zM449.735 122.004v-11.788h-2.6v7.35l-4.057-7.35h-2.6v11.788h2.6v-7.35l4.057 7.35zM458.235 117.497h-2.982l1.491-4.196zm4.404 4.507l-4.785-11.788h-2.202l-4.785 11.788h2.791l.85-2.375h4.49l.85 2.375zM466.374 117.792h.017l2.809 4.212h3.294l-3.38-4.334c1.49-.364 2.686-1.681 2.686-3.675 0-2.236-1.699-3.78-3.606-3.78h-4.421v11.79h2.6zm1.387-5.53c.763 0 1.56.658 1.56 1.733 0 1.127-.797 1.75-1.56 1.75h-1.387v-3.484zM481.834 118c-.485 1.04-1.664 1.75-2.877 1.75-1.907 0-3.433-1.629-3.433-3.64 0-1.994 1.526-3.64 3.433-3.64 1.196 0 2.375.658 2.86 1.716h2.895a6.052 6.052 0 00-5.755-4.144 6.074 6.074 0 00-6.068 6.068 6.074 6.074 0 006.068 6.068A6.083 6.083 0 00484.73 118zM492.673 110.216v4.698h-3.883v-4.698h-2.6v11.788h2.6v-4.732h3.883v4.732h2.774v-11.788zM500.982 122.004h2.6v-5.634l4.352-6.154h-3.103l-2.548 4.074-2.549-4.074h-3.103l4.351 6.154z" style="-inkscape-font-specification:'Glacial Indifference Bold'"/></g></svg>