<svg xmlns="http://www.w3.org/2000/svg" viewBox="0 0 468 60"><path d="M0 0h468v60H0z" fill="#A00"/><path d="M47.516 9.804a.917.917 0 0 0-.914.914v1.828c0 .503.41.914.914.914a.917.917 0 0 0 .914-.914v-1.828a.917.917 0 0 0-.914-.914zm-3.23 1.331a.915.915 0 0 0-.647 1.563l1.294 1.295a.915.915 0 1 0 1.295-1.294l-1.295-1.295a.913.913 0 0 0-.647-.269zm6.46 0a.913.913 0 0 0-.648.269l-1.295 1.295a.915.915 0 1 0 1.295 1.295l1.295-1.295a.915.915 0 0 0 0-1.295.913.913 0 0 0-.648-.269zm-.488 3.24a.917.917 0 0 0-.914.913c0 .503.411.914.914.914h1.828a.917.917 0 0 0 .914-.914.917.917 0 0 0-.914-.914zm-4.007.875l-3.96 3.961-2.02-2.018a1.82 1.82 0 0 0-2.582 0l-1.325 1.325a15.794 15.794 0 0 0-6.52-1.402C21.092 17.116 14 24.208 14 32.96c0 8.752 7.092 15.836 15.844 15.836 8.752 0 15.843-7.092 15.843-15.844 0-2.323-.502-4.532-1.401-6.52l1.325-1.325a1.82 1.82 0 0 0 0-2.582l-2.018-2.019 3.96-3.96zm3.2 1.065a.915.915 0 0 0-.647 1.563l1.294 1.295a.915.915 0 1 0 1.295-1.295l-1.295-1.295a.913.913 0 0 0-.648-.268zM26.954 20.51c.598-.002 1.078.392 1.078 1.053 0 .814-.782.983-1.531 1.3-3.61 1.532-5.42 3.428-6.485 6.594-.26.771-.58 1.583-1.394 1.583s-1.217-.806-.975-1.583c1.358-4.361 4.111-7.425 8.88-8.88a1.49 1.49 0 0 1 .427-.067z" fill="#fff"/><g fill="#fff"><path d="M72 31.84L80.6 44h8.08L77.84 30.4l10.44-13.6H80.6L72 28.96V16.8h-6V44h6z"/><path d="M104.987 33.6h-6.88l3.44-9.68zm10.16 10.4l-11.04-27.2h-5.08L87.987 44h6.44l1.96-5.48h10.36l1.96 5.48zM130.386 36.04c0 1.8-1.52 3.28-3.32 3.28h-3.8v-6.56h3.8c1.8 0 3.32 1.52 3.32 3.28zm-1.88-11.36c0 1.72-1.44 3.16-3.16 3.16h-2.08v-6.32h2.08c1.72 0 3.16 1.4 3.16 3.16zm8 11.52c0-3.68-2.48-6.12-5.52-6.84 2.04-.92 3.24-3 3.24-5.76 0-3.72-2.96-6.8-7.6-6.8h-9.36V44h11c5.2 0 8.24-3.12 8.24-7.8zM159.797 30.36c0 4.2-3.8 8.04-8 8.04s-8-3.84-8-8.04c0-4.2 3.8-8 8-8s8 3.8 8 8zm6 .04c0-7.52-6.48-14-14-14s-14 6.48-14 14 6.48 14 14 14 14-6.48 14-14zM190.078 30.36c0 4.2-3.8 8.04-8 8.04s-8-3.84-8-8.04c0-4.2 3.8-8 8-8s8 3.8 8 8zm6 .04c0-7.52-6.48-14-14-14s-14 6.48-14 14 6.48 14 14 14 14-6.48 14-14zM233.28 44L228 16.8h-7.12l-5.64 19.08-5.68-19.08h-7.12L197.16 44h6.6l3.2-18.76L212.28 44h5.88l5.32-18.76 3.2 18.76z"/></g><g fill="#fff"><path d="M269.182 31.43v-2.902h-4.992v-2.88h5.205v-2.901h-8.405v14.506h3.2V31.43zM274.94 32.07h.021l3.456 5.183h4.054l-4.16-5.333c1.834-.448 3.306-2.07 3.306-4.523 0-2.752-2.09-4.65-4.437-4.65h-5.44v14.506h3.2zm1.707-6.806c.938 0 1.92.81 1.92 2.133 0 1.387-.982 2.155-1.92 2.155h-1.707v-4.288zM291.895 34.352h-5.205v-2.923h4.992v-2.901h-4.992v-2.88h5.205v-2.901h-8.405v14.506h8.405zM302.854 34.352h-5.206v-2.923h4.992v-2.901h-4.992v-2.88h5.206v-2.901h-8.406v14.506h8.406zM321.94 29.979c0 2.24-2.027 4.288-4.267 4.288s-4.266-2.048-4.266-4.288 2.026-4.267 4.266-4.267 4.267 2.027 4.267 4.267zm3.2.021c0-4.01-3.456-7.467-7.467-7.467-4.01 0-7.466 3.456-7.466 7.467 0 4.01 3.456 7.467 7.466 7.467 4.011 0 7.467-3.456 7.467-7.467zM330.357 32.07h2.24c2.346 0 4.437-1.729 4.437-4.673 0-2.752-2.09-4.65-4.437-4.65h-5.44v14.506h3.2zm1.706-6.806c.939 0 1.92.81 1.92 2.133 0 1.387-.981 2.155-1.92 2.155h-1.706v-4.288zM343.031 29.808a2.695 2.695 0 0 0 2.71 2.688 2.677 2.677 0 0 0 2.687-2.688 2.677 2.677 0 0 0-2.688-2.688 2.695 2.695 0 0 0-2.709 2.688zM362.925 31.707h-3.67l1.835-5.163zm5.419 5.546l-5.888-14.506h-2.71l-5.888 14.506h3.435l1.045-2.922h5.526l1.045 2.922zM381.132 37.253V22.747h-3.2v9.045l-4.992-9.045h-3.2v14.506h3.2v-9.045l4.992 9.045zM391.592 31.707h-3.67l1.835-5.163zm5.418 5.546l-5.888-14.506h-2.709l-5.888 14.506h3.435l1.045-2.922h5.525l1.046 2.922zM401.607 32.07h.021l3.456 5.183h4.053l-4.16-5.333c1.835-.448 3.307-2.07 3.307-4.523 0-2.752-2.09-4.65-4.437-4.65h-5.44v14.506h3.2zm1.706-6.806c.939 0 1.92.81 1.92 2.133 0 1.387-.981 2.155-1.92 2.155h-1.706v-4.288zM420.631 32.325c-.597 1.28-2.048 2.155-3.541 2.155-2.347 0-4.224-2.005-4.224-4.48 0-2.453 1.877-4.48 4.224-4.48 1.472 0 2.923.81 3.52 2.112h3.563a7.448 7.448 0 0 0-7.083-5.099c-4.117 0-7.467 3.35-7.467 7.467 0 4.117 3.35 7.467 7.467 7.467a7.485 7.485 0 0 0 7.104-5.142zM433.969 22.747v5.781h-4.779v-5.781h-3.2v14.506h3.2V31.43h4.779v5.824h3.413V22.747zM444.194 37.253h3.2V30.32l5.354-7.573h-3.818l-3.136 5.013-3.136-5.013h-3.819l5.355 7.573z"/></g></svg>
