<svg xmlns="http://www.w3.org/2000/svg" viewBox="0 0 768 768"><path d="M0 0h768v768H0z" fill="#555"/><path d="M568.5 216.55l-52 52 26.5 26.5c9.4 9.4 9.4 24.6 0 33.9l-17.4 17.4c11.8 26.1 18.4 55.1 18.4 85.6 0 114.9-93.1 208-208 208s-208-93-208-207.9 93.1-208 208-208c30.5 0 59.5 6.6 85.6 18.4l17.4-17.4c9.4-9.4 24.6-9.4 33.9 0l26.5 26.5 52-52zM628 188.05h-24c-6.6 0-12 5.4-12 12s5.4 12 12 12h24c6.6 0 12-5.4 12-12s-5.4-12-12-12zm-60-60c-6.6 0-12 5.4-12 12v24c0 6.6 5.4 12 12 12s12-5.4 12-12v-24c0-6.6-5.4-12-12-12zm33.9 55l17-17c4.7-4.7 4.7-12.3 0-17-4.7-4.7-12.3-4.7-17 0l-17 17c-4.7 4.7-4.7 12.3 0 17 4.8 4.7 12.4 4.7 17 0zm-67.8 0c4.7 4.7 12.3 4.7 17 0 4.7-4.7 4.7-12.3 0-17l-17-17c-4.7-4.7-12.3-4.7-17 0-4.7 4.7-4.7 12.3 0 17zm67.8 34c-4.7-4.7-12.3-4.7-17 0-4.7 4.7-4.7 12.3 0 17l17 17c4.7 4.7 12.3 4.7 17 0 4.7-4.7 4.7-12.3 0-17z" fill="#fff"/><path d="M206.99 386.056c13.983-41.563 37.743-66.445 85.133-86.552 9.837-4.173 20.108-6.387 20.108-17.073s-9.547-16.065-19.768-12.946c-62.595 19.095-98.743 59.322-116.573 116.571-3.177 10.202 2.12 20.788 12.806 20.788s14.885-10.66 18.292-20.788z" fill="#555"/></svg>