<svg xmlns="http://www.w3.org/2000/svg" viewBox="0 0 1920 1080"><path d="M0 0h1920v1080H0z" fill="#a00"/><path d="M1098.966 302.38a7.142 7.142 0 00-7.115 7.119v14.236c0 3.918 3.19 7.119 7.115 7.119a7.142 7.142 0 007.119-7.119V309.5a7.142 7.142 0 00-7.119-7.12zm-25.155 10.367a7.126 7.126 0 00-5.042 12.172l10.08 10.086a7.13 7.13 0 1010.086-10.078l-10.086-10.085a7.11 7.11 0 00-5.038-2.095zm50.31 0a7.11 7.11 0 00-5.044 2.095l-10.088 10.085a7.132 7.132 0 1010.088 10.086l10.085-10.086a7.126 7.126 0 000-10.085 7.11 7.11 0 00-5.048-2.095zm-3.799 25.233a7.142 7.142 0 00-7.12 7.11c0 3.918 3.203 7.12 7.12 7.12h14.237a7.142 7.142 0 007.117-7.12 7.142 7.142 0 00-7.117-7.117zm-31.205 6.815l-30.845 30.848-15.732-15.715a14.174 14.174 0 00-20.11 0l-10.317 10.319a123.007 123.007 0 00-50.78-10.917c-68.163 0-123.396 55.232-123.396 123.394 0 68.163 55.233 123.334 123.396 123.334 68.162 0 123.39-55.234 123.39-123.397 0-18.091-3.912-35.296-10.912-50.778l10.317-10.32a14.174 14.174 0 000-20.109l-15.715-15.724 30.841-30.841zm24.918 8.295a7.126 7.126 0 00-5.04 12.173l10.082 10.084a7.132 7.132 0 1010.085-10.084l-10.085-10.086a7.11 7.11 0 00-5.05-2.087zm-175.21 32.67c4.658 0 8.397 3.054 8.397 8.202 0 6.34-6.092 7.656-11.925 10.125-28.115 11.931-42.211 26.697-50.506 51.355-2.025 6.006-4.517 12.329-10.858 12.329-6.339 0-9.48-6.277-7.593-12.329 10.577-33.967 32.017-57.828 69.158-69.16a11.604 11.604 0 013.327-.524z" fill="#fff"/><g fill="#fff"><path d="M778.004 687.863l20.159 28.504h18.94l-25.41-31.88 24.473-31.88h-18.003l-20.16 28.505v-28.504H763.94v63.76h14.065z"/><path d="M855.329 691.989H839.2l8.064-22.691zm23.816 24.378l-25.88-63.76h-11.907l-25.88 63.76h15.097l4.594-12.845h24.285l4.595 12.845zm35.722-18.659c0 4.22-3.563 7.689-7.783 7.689h-8.907V690.02h8.907c4.22 0 7.783 3.563 7.783 7.688zm-4.407-26.629c0 4.032-3.376 7.408-7.408 7.408h-4.875v-14.815h4.875c4.032 0 7.408 3.282 7.408 7.407zm18.752 27.004c0-8.626-5.813-14.346-12.939-16.033 4.782-2.157 7.595-7.033 7.595-13.502 0-8.72-6.939-15.94-17.815-15.94h-21.941v63.76h25.785c12.19 0 19.315-7.314 19.315-18.285zm54.597-13.69c0 9.846-8.908 18.847-18.753 18.847s-18.753-9-18.753-18.846c0-9.845 8.908-18.753 18.753-18.753s18.753 8.908 18.753 18.753zm14.065.095c0-17.628-15.19-32.818-32.818-32.818-17.627 0-32.817 15.19-32.817 32.818 0 17.627 15.19 32.817 32.817 32.817 17.628 0 32.818-15.19 32.818-32.817zm56.917-.094c0 9.845-8.908 18.846-18.753 18.846s-18.753-9-18.753-18.846c0-9.845 8.908-18.753 18.753-18.753s18.753 8.908 18.753 18.753zm14.065.094c0-17.628-15.19-32.818-32.818-32.818s-32.817 15.19-32.817 32.818c0 17.627 15.19 32.817 32.817 32.817 17.628 0 32.818-15.19 32.818-32.817zm87.205 31.88l-12.377-63.76h-16.69l-13.22 44.725-13.315-44.725h-16.69l-12.377 63.76h15.471l7.501-43.976 12.47 43.975h13.784l12.47-43.975 7.502 43.975z"/></g><path d="M780.152 765.239v-5.952h-10.239v-5.907h10.676v-5.95H763.35v29.752h6.563v-11.943zm11.81 1.312h.043l7.088 10.63h8.315l-8.532-10.937c3.761-.919 6.78-4.246 6.78-9.277 0-5.644-4.286-9.537-9.1-9.537H785.4v29.752h6.563zm3.5-13.959c1.925 0 3.939 1.662 3.939 4.375 0 2.845-2.014 4.42-3.938 4.42h-3.501v-8.795zm31.275 18.64H816.06v-5.995H826.3v-5.95h-10.239v-5.907h10.676v-5.95h-17.239v29.752h17.239zm22.477 0h-10.678v-5.995h10.24v-5.95h-10.24v-5.907h10.678v-5.95h-17.24v29.752h17.24zm39.146-8.97c0 4.595-4.158 8.796-8.752 8.796s-8.75-4.2-8.75-8.795c0-4.594 4.156-8.752 8.75-8.752s8.752 4.158 8.752 8.752zm6.563.044c0-8.225-7.088-15.315-15.315-15.315-8.224 0-15.313 7.088-15.313 15.315 0 8.224 7.089 15.315 15.313 15.315 8.227 0 15.315-7.088 15.315-15.315zm10.7 4.245h4.595c4.811 0 9.1-3.546 9.1-9.584 0-5.644-4.287-9.537-9.1-9.537H899.06v29.752h6.563zm3.5-13.959c1.925 0 3.937 1.662 3.937 4.375 0 2.845-2.012 4.42-3.938 4.42h-3.499v-8.795zm22.495 9.32a5.528 5.528 0 005.558 5.513 5.49 5.49 0 005.511-5.513 5.49 5.49 0 00-5.513-5.513 5.528 5.528 0 00-5.556 5.513zm40.803 3.895h-7.527l3.763-10.59zm11.114 11.375L971.46 747.43h-5.558l-12.077 29.752h7.046l2.143-5.993h11.334l2.143 5.993zm26.229 0V747.43h-6.563v18.551l-10.239-18.551h-6.563v29.752h6.563V758.63l10.239 18.552zm21.454-11.375h-7.528l3.764-10.59zm11.112 11.375l-12.076-29.752h-5.557l-12.076 29.752h7.045l2.144-5.993h11.332l2.145 5.993zm9.429-10.63h.043l7.088 10.63h8.313l-8.532-10.938c3.763-.919 6.782-4.246 6.782-9.277 0-5.644-4.286-9.537-9.1-9.537h-11.158v29.752h6.564zm3.499-13.96c1.926 0 3.938 1.662 3.938 4.375 0 2.845-2.012 4.42-3.938 4.42h-3.5v-8.795zm35.52 14.482c-1.225 2.626-4.201 4.42-7.263 4.42-4.814 0-8.664-4.112-8.664-9.188 0-5.031 3.85-9.189 8.664-9.189 3.019 0 5.995 1.662 7.22 4.332h7.307a15.276 15.276 0 00-14.527-10.458c-8.444 0-15.315 6.87-15.315 15.315 0 8.444 6.87 15.315 15.315 15.315a15.352 15.352 0 0014.57-10.547zm27.356-19.644v11.857h-9.802V747.43h-6.563v29.752h6.563v-11.943h9.802v11.945h7V747.43zm20.972 29.752h6.563v-14.22l10.981-15.532h-7.83l-6.433 10.282-6.432-10.282h-7.833l10.984 15.532z" fill="#fff"/></svg>