<svg xmlns="http://www.w3.org/2000/svg" viewBox="0 0 1920 1080"><path d="M0 0h1920v1080H0z" fill="#a00"/><path d="M1211.643 90.909a12.933 12.933 0 00-12.887 12.892v25.78c0 7.094 5.78 12.89 12.887 12.89a12.933 12.933 0 0012.89-12.89v-25.78a12.933 12.933 0 00-12.89-12.892zm-45.552 18.774a12.904 12.904 0 00-9.129 22.042l18.252 18.264a12.91 12.91 0 1018.264-18.25l-18.264-18.263a12.876 12.876 0 00-9.123-3.793zm91.102 0a12.876 12.876 0 00-9.135 3.793l-18.265 18.263a12.915 12.915 0 1018.265 18.264l18.265-18.264a12.904 12.904 0 000-18.263 12.876 12.876 0 00-9.141-3.793zm-6.876 45.692a12.933 12.933 0 00-12.895 12.877c0 7.094 5.799 12.891 12.895 12.891h25.778a12.933 12.933 0 0012.89-12.89 12.933 12.933 0 00-12.89-12.89zm-56.511 12.341l-55.854 55.862-28.488-28.459a25.668 25.668 0 00-36.414 0l-18.687 18.686a222.744 222.744 0 00-91.95-19.768c-123.431 0-223.45 100.015-223.45 223.445 0 123.431 100.019 223.337 223.45 223.337 123.43 0 223.437-100.018 223.437-223.45 0-32.76-7.083-63.914-19.76-91.95l18.685-18.687a25.668 25.668 0 000-36.415l-28.457-28.475 55.846-55.847zm45.125 15.021a12.904 12.904 0 00-9.125 22.043l18.252 18.262a12.915 12.915 0 1018.265-18.262l-18.265-18.264a12.876 12.876 0 00-9.144-3.779zM921.655 241.9c8.434 0 15.206 5.528 15.206 14.85 0 11.482-11.033 13.864-21.595 18.335-50.912 21.606-76.438 48.345-91.458 92.996-3.666 10.874-8.18 22.325-19.661 22.325-11.48 0-17.167-11.367-13.75-22.325 19.152-61.508 57.978-104.716 125.233-125.237a21.014 21.014 0 016.025-.949z" fill="#fff"/><g fill="#fff"><path d="M630.434 788.955l36.505 51.616h34.298l-46.013-57.729 44.315-57.729h-32.6l-36.505 51.617v-51.617h-25.468v115.458h25.468z"/><path d="M770.457 796.426h-29.204l14.602-41.09zm43.127 44.145L766.72 725.113h-21.563l-46.862 115.458h27.336l8.32-23.261h43.976l8.32 23.261zm64.686-33.788c0 7.64-6.452 13.923-14.093 13.923h-16.13V792.86h16.13c7.64 0 14.093 6.452 14.093 13.923zm-7.98-48.22c0 7.3-6.113 13.413-13.414 13.413h-8.829v-26.827h8.83c7.3 0 13.413 5.942 13.413 13.413zm33.958 48.899c0-15.62-10.527-25.978-23.431-29.034 8.66-3.905 13.753-12.735 13.753-24.45 0-15.79-12.565-28.865-32.26-28.865h-39.732v115.458h46.693c22.073 0 34.977-13.243 34.977-33.109zm98.865-24.79c0 17.829-16.13 34.129-33.958 34.129s-33.958-16.3-33.958-34.128c0-17.829 16.13-33.959 33.958-33.959s33.958 16.13 33.958 33.959zm25.469.17c0-31.92-27.506-59.427-59.427-59.427-31.92 0-59.427 27.507-59.427 59.427 0 31.921 27.506 59.427 59.427 59.427 31.92 0 59.427-27.506 59.427-59.427zm103.067-.17c0 17.829-16.13 34.129-33.958 34.129s-33.958-16.3-33.958-34.128c0-17.829 16.13-33.959 33.958-33.959s33.958 16.13 33.958 33.959zm25.469.17c0-31.92-27.506-59.427-59.427-59.427-31.92 0-59.427 27.507-59.427 59.427 0 31.921 27.506 59.427 59.427 59.427 31.92 0 59.427-27.506 59.427-59.427zm157.914 57.73l-22.412-115.459h-30.223l-23.94 80.99-24.111-80.99h-30.223l-22.412 115.458h28.015l13.584-79.632 22.582 79.632h24.96l22.581-79.632 13.584 79.632z"/></g><path d="M634.326 929.07V918.29h-18.541v-10.696h19.332V896.82H603.9v53.876h11.885V929.07zm21.385 2.376h.078l12.836 19.25h15.057l-15.45-19.807c6.81-1.664 12.278-7.688 12.278-16.799 0-10.22-7.763-17.27-16.48-17.27h-20.204v53.876h11.885zm6.34-25.278c3.484 0 7.131 3.009 7.131 7.922 0 5.152-3.647 8.004-7.131 8.004h-6.34v-15.926zm56.632 33.754H699.35v-10.856h18.54V918.29h-18.54v-10.696h19.332V896.82h-31.217v53.876h31.217zm40.702 0H740.05v-10.856h18.54V918.29h-18.54v-10.696h19.335V896.82h-31.22v53.876h31.22zm70.887-16.242c0 8.32-7.529 15.926-15.848 15.926-8.32 0-15.844-7.606-15.844-15.926s7.524-15.848 15.844-15.848 15.848 7.529 15.848 15.848zm11.885.078c0-14.893-12.836-27.733-27.733-27.733-14.894 0-27.73 12.836-27.73 27.733 0 14.894 12.836 27.733 27.73 27.733 14.897 0 27.733-12.836 27.733-27.733zm19.376 7.688h8.32c8.713 0 16.479-6.421 16.479-17.356 0-10.22-7.763-17.27-16.48-17.27h-20.204v53.876h11.885zm6.336-25.278c3.488 0 7.131 3.009 7.131 7.922 0 5.152-3.643 8.004-7.13 8.004h-6.337v-15.926zm40.736 16.877a10.01 10.01 0 0010.065 9.983 9.943 9.943 0 009.98-9.983 9.943 9.943 0 00-9.984-9.983 10.01 10.01 0 00-10.061 9.983zm73.887 7.053h-13.63l6.815-19.176zm20.127 20.598L980.75 896.82h-10.065l-21.868 53.876h12.758l3.88-10.852h20.525l3.881 10.852zm47.495 0V896.82h-11.885v33.594l-18.54-33.594h-11.885v53.876h11.885v-33.593l18.54 33.593zm38.85-20.598h-13.631l6.815-19.176zm20.122 20.598l-21.868-53.876h-10.062l-21.868 53.876h12.758l3.88-10.852h20.521l3.885 10.852zm17.073-19.25h.078l12.836 19.25h15.053l-15.45-19.807c6.815-1.664 12.282-7.688 12.282-16.799 0-10.22-7.762-17.27-16.48-17.27h-20.204v53.876h11.885zm6.337-25.278c3.487 0 7.13 3.009 7.13 7.922 0 5.152-3.643 8.004-7.13 8.004h-6.337v-15.926zm64.32 26.225c-2.218 4.754-7.607 8.004-13.152 8.004-8.717 0-15.688-7.447-15.688-16.639 0-9.11 6.971-16.639 15.688-16.639 5.467 0 10.856 3.009 13.074 7.844h13.233a27.662 27.662 0 00-26.307-18.938c-15.29 0-27.733 12.442-27.733 27.733 0 15.29 12.442 27.733 27.733 27.733a27.8 27.8 0 0026.385-19.098zm49.538-35.573v21.471h-17.75v-21.47h-11.885v53.875h11.885V929.07h17.75v21.63h12.676V896.82zm37.976 53.876h11.885v-25.75l19.885-28.126h-14.18l-11.648 18.619-11.647-18.619h-14.184l19.889 28.127z" fill="#fff"/></svg>