<svg xmlns="http://www.w3.org/2000/svg" viewBox="0 0 1920 1080"><path d="M0 0h1920v1080H0z" fill="#a00"/><path d="M1129.458 250.24a8.709 8.709 0 00-8.677 8.681v17.36c0 4.778 3.891 8.681 8.677 8.681a8.709 8.709 0 008.68-8.68V258.92a8.709 8.709 0 00-8.68-8.682zm-30.675 12.642a8.69 8.69 0 00-6.147 14.843l12.29 12.299a8.694 8.694 0 1012.3-12.29l-12.3-12.298a8.67 8.67 0 00-6.143-2.554zm61.349 0a8.67 8.67 0 00-6.151 2.554l-12.3 12.298a8.697 8.697 0 1012.3 12.3l12.299-12.3a8.69 8.69 0 000-12.298 8.67 8.67 0 00-6.155-2.554zm-4.63 30.77a8.709 8.709 0 00-8.684 8.671c0 4.777 3.906 8.68 8.683 8.68h17.36a8.709 8.709 0 008.68-8.68 8.709 8.709 0 00-8.68-8.68zm-38.055 8.31l-37.613 37.618-19.183-19.165a17.285 17.285 0 00-24.523 0L1023.546 333a149.997 149.997 0 00-61.92-13.313c-83.12 0-150.473 67.351-150.473 150.47 0 83.12 67.353 150.396 150.472 150.396 83.119 0 150.464-67.353 150.464-150.472 0-22.061-4.77-43.04-13.306-61.92l12.582-12.584a17.285 17.285 0 000-24.522l-19.163-19.175 37.607-37.608zm30.387 10.115a8.69 8.69 0 00-6.146 14.844l12.293 12.298a8.697 8.697 0 1012.299-12.298l-12.3-12.3a8.67 8.67 0 00-6.157-2.544zm-213.655 39.84c5.679 0 10.24 3.723 10.24 10 0 7.732-7.43 9.336-14.543 12.347-34.284 14.55-51.473 32.556-61.588 62.624-2.47 7.323-5.509 15.034-13.24 15.034-7.73 0-11.56-7.655-9.26-15.034 12.898-41.42 39.043-70.517 84.334-84.335a14.15 14.15 0 014.057-.64z" fill="#fff"/><g fill="#fff"><path d="M738.069 720.308l24.583 34.759h23.096l-30.986-38.875 29.842-38.875h-21.952l-24.583 34.758v-34.758h-17.151v77.75h17.15z"/><path d="M832.36 725.339h-19.665l9.833-27.67zm29.043 29.728l-31.558-77.75h-14.52l-31.558 77.75h18.408l5.603-15.665h29.614l5.602 15.665zm43.56-22.754c0 5.146-4.345 9.376-9.49 9.376H884.61v-18.751h10.862c5.145 0 9.49 4.344 9.49 9.375zm-5.374-32.472c0 4.917-4.116 9.033-9.033 9.033h-5.945v-18.065h5.945c4.917 0 9.033 4.001 9.033 9.032zm22.868 32.93c0-10.52-7.09-17.494-15.78-19.552 5.832-2.63 9.262-8.576 9.262-16.465 0-10.633-8.46-19.437-21.724-19.437H867.46v77.75h31.443c14.864 0 23.554-8.919 23.554-22.296zm66.576-16.694c0 12.006-10.862 22.982-22.868 22.982-12.005 0-22.867-10.976-22.867-22.982 0-12.005 10.862-22.867 22.867-22.867 12.006 0 22.868 10.862 22.868 22.867zm17.15.115c0-21.496-18.522-40.019-40.018-40.019-21.495 0-40.018 18.523-40.018 40.019 0 21.495 18.523 40.018 40.018 40.018 21.496 0 40.019-18.523 40.019-40.018zm69.407-.115c0 12.006-10.862 22.982-22.868 22.982-12.005 0-22.867-10.976-22.867-22.982 0-12.005 10.862-22.867 22.867-22.867 12.006 0 22.868 10.862 22.868 22.867zm17.15.115c0-21.496-18.522-40.019-40.018-40.019-21.495 0-40.018 18.523-40.018 40.019 0 21.495 18.523 40.018 40.018 40.018 21.496 0 40.019-18.523 40.019-40.018zm106.341 38.875l-15.092-77.75h-20.353l-16.121 54.539-16.236-54.54h-20.353l-15.092 77.75h18.865l9.148-53.624 15.207 53.625h16.807l15.207-53.625 9.147 53.625z"/></g><path d="M740.689 814.662v-7.258h-12.485V800.2h13.018v-7.256H720.2v36.28h8.004v-14.563zm14.401 1.6h.053l8.643 12.963h10.14l-10.405-13.338c4.587-1.12 8.269-5.177 8.269-11.312 0-6.883-5.228-11.63-11.098-11.63h-13.605v36.28h8.003zm4.27-17.022c2.345 0 4.801 2.026 4.801 5.335 0 3.469-2.456 5.39-4.802 5.39h-4.269V799.24zm38.136 22.73h-13.018v-7.31h12.485v-7.256h-12.485V800.2h13.018v-7.256h-21.022v36.28h21.022zm27.409 0h-13.02v-7.31h12.485v-7.256h-12.486V800.2h13.02v-7.256h-21.023v36.28h21.024zm47.735-10.937c0 5.602-5.07 10.724-10.672 10.724s-10.67-5.122-10.67-10.724c0-5.603 5.068-10.672 10.67-10.672 5.603 0 10.672 5.07 10.672 10.672zm8.004.052c0-10.03-8.644-18.675-18.676-18.675-10.03 0-18.673 8.643-18.673 18.675 0 10.03 8.644 18.676 18.673 18.676 10.032 0 18.676-8.644 18.676-18.676zm13.048 5.177h5.602c5.868 0 11.097-4.324 11.097-11.687 0-6.883-5.227-11.63-11.097-11.63h-13.606v36.28h8.004zm4.267-17.022c2.348 0 4.802 2.026 4.802 5.335 0 3.469-2.454 5.39-4.802 5.39h-4.267V799.24zm27.431 11.365a6.74 6.74 0 006.778 6.723 6.695 6.695 0 006.72-6.723 6.695 6.695 0 00-6.722-6.723 6.74 6.74 0 00-6.776 6.723zm49.756 4.75h-9.178l4.589-12.913zm13.554 13.87l-14.727-36.28h-6.777l-14.727 36.28h8.591l2.614-7.308h13.821l2.614 7.308zm31.983 0v-36.28h-8.003v22.622l-12.485-22.622h-8.004v36.28h8.004v-22.622l12.485 22.622zm26.162-13.87h-9.18l4.59-12.913zm13.55 13.87l-14.726-36.28h-6.775l-14.727 36.28h8.592l2.613-7.308h13.819l2.616 7.308zm11.498-12.963h.052l8.644 12.963h10.137l-10.405-13.338c4.59-1.12 8.271-5.177 8.271-11.312 0-6.883-5.227-11.63-11.097-11.63h-13.606v36.28h8.004zm4.267-17.022c2.348 0 4.802 2.026 4.802 5.335 0 3.469-2.454 5.39-4.802 5.39h-4.267V799.24zm43.313 17.66c-1.493 3.202-5.122 5.39-8.856 5.39-5.87 0-10.565-5.015-10.565-11.205 0-6.135 4.695-11.205 10.565-11.205 3.681 0 7.31 2.026 8.804 5.283h8.91a18.628 18.628 0 00-17.714-12.753c-10.297 0-18.676 8.378-18.676 18.675s8.379 18.676 18.676 18.676a18.72 18.72 0 0017.767-12.86zm33.36-23.955v14.459h-11.953v-14.459h-8.004v36.28h8.004v-14.563h11.952v14.566h8.536v-36.283zm25.573 36.28h8.003v-17.34l13.39-18.94h-9.548l-7.844 12.538-7.843-12.538h-9.551l13.393 18.94z" fill="#fff"/></svg>